<?xml version="1.0" encoding="UTF-8" standalone="no"?>
<!DOCTYPE svg PUBLIC "-//W3C//DTD SVG 1.1//EN"
 "http://www.w3.org/Graphics/SVG/1.1/DTD/svg11.dtd">
<!-- Generated by graphviz version 12.1.1 (20240910.0053)
 -->
<!-- Title: INFRA Pages: 1 -->
<svg width="907pt" height="296pt"
 viewBox="0.00 0.00 906.86 296.00" xmlns="http://www.w3.org/2000/svg" xmlns:xlink="http://www.w3.org/1999/xlink">
<g id="graph0" class="graph" transform="scale(1 1) rotate(0) translate(4 292)">
<title>INFRA</title>
<polygon fill="white" stroke="none" points="-4,4 -4,-292 902.86,-292 902.86,4 -4,4"/>
<!-- VPCA -->
<g id="node1" class="node">
<title>VPCA</title>
<ellipse fill="#e6e6e6" stroke="black" stroke-width="2" cx="95.34" cy="-36" rx="78.9" ry="36"/>
<text text-anchor="middle" x="95.34" y="-40.2" font-family="Arial" font-size="14.00">VPCA</text>
<text text-anchor="middle" x="95.34" y="-23.4" font-family="Arial" font-size="14.00">(AWS::EC2::VPC)</text>
</g>
<!-- VPCB -->
<g id="node2" class="node">
<title>VPCB</title>
<ellipse fill="#e6e6e6" stroke="black" stroke-width="2" cx="335.34" cy="-36" rx="78.9" ry="36"/>
<text text-anchor="middle" x="335.34" y="-40.2" font-family="Arial" font-size="14.00">VPCB</text>
<text text-anchor="middle" x="335.34" y="-23.4" font-family="Arial" font-size="14.00">(AWS::EC2::VPC)</text>
</g>
<!-- VPCC -->
<g id="node3" class="node">
<title>VPCC</title>
<ellipse fill="#e6e6e6" stroke="black" stroke-width="2" cx="655.34" cy="-36" rx="78.9" ry="36"/>
<text text-anchor="middle" x="655.34" y="-40.2" font-family="Arial" font-size="14.00">VPCC</text>
<text text-anchor="middle" x="655.34" y="-23.4" font-family="Arial" font-size="14.00">(AWS::EC2::VPC)</text>
</g>
<!-- VPCASG -->
<g id="node4" class="node">
<title>VPCASG</title>
<ellipse fill="#e6e6e6" stroke="black" stroke-width="2" cx="135.34" cy="-144" rx="116.08" ry="36"/>
<text text-anchor="middle" x="135.34" y="-148.2" font-family="Arial" font-size="14.00">VPCASG</text>
<text text-anchor="middle" x="135.34" y="-131.4" font-family="Arial" font-size="14.00">(AWS::EC2::SecurityGroup)</text>
</g>
<!-- VPCASG&#45;&gt;VPCA -->
<g id="edge1" class="edge">
<title>VPCASG&#45;&gt;VPCA</title>
<path fill="none" stroke="black" d="M122.14,-108C119.06,-99.86 115.75,-91.07 112.53,-82.55"/>
<polygon fill="black" stroke="black" points="115.88,-81.5 109.07,-73.38 109.33,-83.97 115.88,-81.5"/>
</g>
<!-- VPCBSG -->
<g id="node5" class="node">
<title>VPCBSG</title>
<ellipse fill="#e6e6e6" stroke="black" stroke-width="2" cx="439.34" cy="-144" rx="116.08" ry="36"/>
<text text-anchor="middle" x="439.34" y="-148.2" font-family="Arial" font-size="14.00">VPCBSG</text>
<text text-anchor="middle" x="439.34" y="-131.4" font-family="Arial" font-size="14.00">(AWS::EC2::SecurityGroup)</text>
</g>
<!-- VPCBSG&#45;&gt;VPCB -->
<g id="edge2" class="edge">
<title>VPCBSG&#45;&gt;VPCB</title>
<path fill="none" stroke="black" d="M406.15,-109.17C396.3,-99.13 385.41,-88.03 375.18,-77.61"/>
<polygon fill="black" stroke="black" points="377.72,-75.19 368.22,-70.51 372.72,-80.1 377.72,-75.19"/>
</g>
<!-- VPCCSG -->
<g id="node6" class="node">
<title>VPCCSG</title>
<ellipse fill="#e6e6e6" stroke="black" stroke-width="2" cx="727.34" cy="-144" rx="116.08" ry="36"/>
<text text-anchor="middle" x="727.34" y="-148.2" font-family="Arial" font-size="14.00">VPCCSG</text>
<text text-anchor="middle" x="727.34" y="-131.4" font-family="Arial" font-size="14.00">(AWS::EC2::SecurityGroup)</text>
</g>
<!-- VPCCSG&#45;&gt;VPCC -->
<g id="edge3" class="edge">
<title>VPCCSG&#45;&gt;VPCC</title>
<path fill="none" stroke="black" d="M703.77,-108.29C697.62,-99.23 690.91,-89.37 684.51,-79.94"/>
<polygon fill="black" stroke="black" points="687.6,-78.26 679.09,-71.95 681.81,-82.19 687.6,-78.26"/>
</g>
<!-- VPCAEC2Instance -->
<g id="node7" class="node">
<title>VPCAEC2Instance</title>
<path fill="#b7e0ff" stroke="black" stroke-width="2" d="M164.81,-288C164.81,-288 35.88,-288 35.88,-288 29.88,-288 23.88,-282 23.88,-276 23.88,-276 23.88,-228 23.88,-228 23.88,-222 29.88,-216 35.88,-216 35.88,-216 164.81,-216 164.81,-216 170.81,-216 176.81,-222 176.81,-228 176.81,-228 176.81,-276 176.81,-276 176.81,-282 170.81,-288 164.81,-288"/>
<text text-anchor="middle" x="100.34" y="-256.2" font-family="Arial" font-size="14.00">VPCAEC2Instance</text>
<text text-anchor="middle" x="100.34" y="-239.4" font-family="Arial" font-size="14.00">(AWS::EC2::Instance)</text>
</g>
<!-- VPCAEC2Instance&#45;&gt;VPCA -->
<g id="edge4" class="edge">
<title>VPCAEC2Instance&#45;&gt;VPCA</title>
<path fill="none" stroke="black" d="M39.68,-215.63C27.84,-205.71 17.03,-193.79 10.34,-180 -3.62,-151.21 -3.21,-136.99 10.34,-108 16.83,-94.12 27.51,-82.01 39.15,-71.9"/>
<polygon fill="black" stroke="black" points="41.03,-74.89 46.57,-65.86 36.61,-69.46 41.03,-74.89"/>
</g>
<!-- VPCAEC2Instance&#45;&gt;VPCASG -->
<g id="edge5" class="edge">
<title>VPCAEC2Instance&#45;&gt;VPCASG</title>
<path fill="none" stroke="black" d="M112,-215.7C114.63,-207.75 117.45,-199.19 120.2,-190.87"/>
<polygon fill="black" stroke="black" points="123.45,-192.17 123.27,-181.58 116.81,-189.98 123.45,-192.17"/>
</g>
<!-- VPCBEC2Instance -->
<g id="node8" class="node">
<title>VPCBEC2Instance</title>
<path fill="#b7e0ff" stroke="black" stroke-width="2" d="M393.81,-288C393.81,-288 264.88,-288 264.88,-288 258.88,-288 252.88,-282 252.88,-276 252.88,-276 252.88,-228 252.88,-228 252.88,-222 258.88,-216 264.88,-216 264.88,-216 393.81,-216 393.81,-216 399.81,-216 405.81,-222 405.81,-228 405.81,-228 405.81,-276 405.81,-276 405.81,-282 399.81,-288 393.81,-288"/>
<text text-anchor="middle" x="329.34" y="-256.2" font-family="Arial" font-size="14.00">VPCBEC2Instance</text>
<text text-anchor="middle" x="329.34" y="-239.4" font-family="Arial" font-size="14.00">(AWS::EC2::Instance)</text>
</g>
<!-- VPCBEC2Instance&#45;&gt;VPCB -->
<g id="edge6" class="edge">
<title>VPCBEC2Instance&#45;&gt;VPCB</title>
<path fill="none" stroke="black" d="M320.4,-215.84C317.92,-204.48 315.57,-191.78 314.34,-180 311.02,-148.17 309.76,-139.67 314.34,-108 315.53,-99.78 317.46,-91.18 319.68,-82.93"/>
<polygon fill="black" stroke="black" points="323.02,-83.98 322.42,-73.4 316.29,-82.04 323.02,-83.98"/>
</g>
<!-- VPCBEC2Instance&#45;&gt;VPCBSG -->
<g id="edge7" class="edge">
<title>VPCBEC2Instance&#45;&gt;VPCBSG</title>
<path fill="none" stroke="black" d="M365.97,-215.7C375.64,-206.39 386.16,-196.25 396.14,-186.63"/>
<polygon fill="black" stroke="black" points="398.5,-189.21 403.28,-179.76 393.65,-184.17 398.5,-189.21"/>
</g>
<!-- VPCCEC2Instance -->
<g id="node9" class="node">
<title>VPCCEC2Instance</title>
<path fill="#b7e0ff" stroke="black" stroke-width="2" d="M719.81,-288C719.81,-288 590.88,-288 590.88,-288 584.88,-288 578.88,-282 578.88,-276 578.88,-276 578.88,-228 578.88,-228 578.88,-222 584.88,-216 590.88,-216 590.88,-216 719.81,-216 719.81,-216 725.81,-216 731.81,-222 731.81,-228 731.81,-228 731.81,-276 731.81,-276 731.81,-282 725.81,-288 719.81,-288"/>
<text text-anchor="middle" x="655.34" y="-256.2" font-family="Arial" font-size="14.00">VPCCEC2Instance</text>
<text text-anchor="middle" x="655.34" y="-239.4" font-family="Arial" font-size="14.00">(AWS::EC2::Instance)</text>
</g>
<!-- VPCCEC2Instance&#45;&gt;VPCC -->
<g id="edge8" class="edge">
<title>VPCCEC2Instance&#45;&gt;VPCC</title>
<path fill="none" stroke="black" d="M622.06,-215.63C614.03,-204.97 606.56,-192.7 602.34,-180 592.26,-149.63 592.26,-138.37 602.34,-108 605.76,-97.71 611.32,-87.7 617.57,-78.6"/>
<polygon fill="black" stroke="black" points="620.29,-80.82 623.39,-70.69 614.65,-76.67 620.29,-80.82"/>
</g>
<!-- VPCCEC2Instance&#45;&gt;VPCCSG -->
<g id="edge9" class="edge">
<title>VPCCEC2Instance&#45;&gt;VPCCSG</title>
<path fill="none" stroke="black" d="M679.32,-215.7C685.15,-207.12 691.45,-197.84 697.51,-188.92"/>
<polygon fill="black" stroke="black" points="700.39,-190.91 703.11,-180.67 694.6,-186.98 700.39,-190.91"/>
</g>
<!-- MyKeyPair -->
<g id="node10" class="node">
<title>MyKeyPair</title>
<path fill="#e6e6e6" stroke="black" stroke-width="2" d="M886.86,-288C886.86,-288 761.83,-288 761.83,-288 755.83,-288 749.83,-282 749.83,-276 749.83,-276 749.83,-228 749.83,-228 749.83,-222 755.83,-216 761.83,-216 761.83,-216 886.86,-216 886.86,-216 892.86,-216 898.86,-222 898.86,-228 898.86,-228 898.86,-276 898.86,-276 898.86,-282 892.86,-288 886.86,-288"/>
<text text-anchor="middle" x="824.34" y="-256.2" font-family="Arial" font-size="14.00">MyKeyPair</text>
<text text-anchor="middle" x="824.34" y="-239.4" font-family="Arial" font-size="14.00">(AWS::EC2::KeyPair)</text>
</g>
</g>
</svg>
